<svg width="248" height="33" viewBox="0 0 248 33" fill="none" xmlns="http://www.w3.org/2000/svg">
<path d="M9.93287 4.80711C11.0155 2.49827 14.2993 2.49827 15.382 4.80711L16.8839 8.00981C17.3096 8.91774 18.1597 9.55394 19.1508 9.70644L22.76 10.2617C25.1792 10.634 26.1657 13.5849 24.4566 15.3372L21.6585 18.2059C20.9919 18.8894 20.6891 19.8487 20.8427 20.791L21.4755 24.6751C21.8796 27.155 19.2463 29.0087 17.048 27.7919L14.1149 26.1682C13.2081 25.6662 12.1068 25.6662 11.2 26.1682L8.26687 27.7919C6.06861 29.0087 3.43528 27.155 3.83934 24.6751L4.4722 20.791C4.62574 19.8487 4.323 18.8894 3.65635 18.2059L0.85826 15.3372C-0.850782 13.5849 0.135687 10.634 2.55489 10.2617L6.16407 9.70644C7.15521 9.55394 8.00527 8.91774 8.43103 8.00981L9.93287 4.80711Z" fill="#FEAD1D"/>
<path d="M65.6169 4.63112C66.7105 2.35877 69.9464 2.35877 71.04 4.63112L72.6746 8.02754C73.1066 8.92518 73.9549 9.55085 74.94 9.69854L78.7239 10.2658C81.1675 10.6321 82.1526 13.6245 80.4045 15.3708L77.5755 18.1968C76.8872 18.8844 76.5738 19.8625 76.7343 20.8221L77.388 24.7316C77.8009 27.2005 75.1945 29.0648 72.9914 27.8765L69.757 26.1319C68.8653 25.651 67.7915 25.651 66.8999 26.1319L63.6655 27.8765C61.4623 29.0648 58.856 27.2005 59.2688 24.7316L59.9226 20.8221C60.0831 19.8625 59.7697 18.8844 59.0813 18.1968L56.2524 15.3708C54.5043 13.6245 55.4894 10.6321 57.933 10.2658L61.7168 9.69854C62.702 9.55085 63.5503 8.92518 63.9823 8.02754L65.6169 4.63112Z" fill="#FEAD1D"/>
<path opacity="0.3" d="M176.96 4.63112C178.053 2.35877 181.289 2.35877 182.383 4.63112L184.017 8.02754C184.449 8.92518 185.297 9.55085 186.283 9.69854L190.066 10.2658C192.51 10.6321 193.495 13.6245 191.747 15.3708L188.918 18.1968C188.23 18.8844 187.916 19.8625 188.077 20.8221L188.731 24.7316C189.144 27.2005 186.537 29.0648 184.334 27.8765L181.1 26.1319C180.208 25.651 179.134 25.651 178.243 26.1319L175.008 27.8765C172.805 29.0648 170.199 27.2005 170.611 24.7316L171.265 20.8221C171.426 19.8625 171.112 18.8844 170.424 18.1968L167.595 15.3708C165.847 13.6245 166.832 10.6321 169.276 10.2658L173.059 9.69854C174.045 9.55085 174.893 8.92518 175.325 8.02754L176.96 4.63112Z" fill="#FEAD1D"/>
<path opacity="0.3" d="M232.618 4.80711C233.701 2.49827 236.985 2.49827 238.067 4.80711L239.569 8.00981C239.995 8.91774 240.845 9.55394 241.836 9.70644L245.445 10.2617C247.864 10.634 248.851 13.5849 247.142 15.3372L244.344 18.2059C243.677 18.8894 243.374 19.8487 243.528 20.791L244.161 24.6751C244.565 27.155 241.932 29.0087 239.733 27.7919L236.8 26.1682C235.893 25.6662 234.792 25.6662 233.885 26.1682L230.952 27.7919C228.754 29.0087 226.121 27.155 226.525 24.6751L227.157 20.791C227.311 19.8487 227.008 18.8894 226.342 18.2059L223.544 15.3372C221.834 13.5849 222.821 10.634 225.24 10.2617L228.849 9.70644C229.84 9.55394 230.691 8.91774 231.116 8.00981L232.618 4.80711Z" fill="#FEAD1D"/>
<path d="M121.276 4.80711C122.358 2.49827 125.642 2.49827 126.725 4.80711L128.226 8.00981C128.652 8.91774 129.502 9.55394 130.493 9.70644L134.103 10.2617C136.522 10.634 137.508 13.5849 135.799 15.3372L133.001 18.2059C132.335 18.8894 132.032 19.8487 132.185 20.791L132.818 24.6751C133.222 27.155 130.589 29.0087 128.391 27.7919L125.458 26.1682C124.551 25.6662 123.449 25.6662 122.543 26.1682L119.61 27.7919C117.411 29.0087 114.778 27.155 115.182 24.6751L115.815 20.791C115.968 19.8487 115.666 18.8894 114.999 18.2059L112.201 15.3372C110.492 13.5849 111.478 10.634 113.898 10.2617L117.507 9.70644C118.498 9.55394 119.348 8.91774 119.774 8.00981L121.276 4.80711Z" fill="#FEAD1D"/>
<circle cx="136.538" cy="1.50463" r="1.50463" fill="#FEAD1D"/>
<circle opacity="0.5" cx="119.987" cy="31.7644" r="1.00309" fill="#FEAD1D"/>
<circle cx="109.957" cy="21.7335" r="2.00617" fill="#FEAD1D"/>
<circle opacity="0.6" cx="135.535" cy="26.2474" r="0.501543" fill="#FEAD1D"/>
<circle cx="116.477" cy="6.52006" r="0.501543" fill="#FEAD1D"/>
</svg>
