<svg width="50" height="50" viewBox="0 0 50 50" fill="none" xmlns="http://www.w3.org/2000/svg">
<g clip-path="url(#clip0_169_22933)">
<path d="M7.42205 20.7031C6.61306 20.7031 5.9572 20.0472 5.9572 19.2382V16.3085C5.9572 15.4996 6.61306 14.8437 7.42205 14.8437C8.23103 14.8437 8.88689 15.4996 8.88689 16.3085V19.2382C8.88689 20.0472 8.23103 20.7031 7.42205 20.7031Z" fill="#66334D"/>
<path d="M35.2541 16.3086V19.2383C35.2541 20.0469 34.5978 20.7031 33.7892 20.7031H16.2111C15.4025 20.7031 14.7462 20.0469 14.7462 19.2383V16.3086C14.7462 13.8857 16.7179 11.914 19.1408 11.914H30.8595C33.2824 11.914 35.2541 13.8857 35.2541 16.3086Z" fill="#66334D"/>
<path d="M35.2539 16.3086V19.2383C35.2539 20.0469 34.5976 20.7031 33.789 20.7031H25V11.914H30.8593C33.2822 11.914 35.2539 13.8857 35.2539 16.3086Z" fill="#66334D"/>
<path d="M35.2539 16.3086V19.2383C35.2539 20.0469 34.5976 20.7032 33.789 20.7032H25V11.9141H30.8593C33.2822 11.9141 35.2539 13.8858 35.2539 16.3086Z" fill="#4D2739"/>
<path d="M50 22.168V33.8867L25 36.2305L0 33.8867V22.168C0 19.7451 1.97168 17.7734 4.39453 17.7734H45.6055C48.0283 17.7734 50 19.7451 50 22.168Z" fill="#8C466A"/>
<path d="M50 22.168V33.8867L25 36.2305V17.7734H45.6054C48.0283 17.7734 50 19.7451 50 22.168Z" fill="#66334D"/>
<path d="M50 33.8867V45.6055C50 48.0283 48.0283 50 45.6055 50H4.39453C1.97168 50 0 48.0283 0 45.6055V33.8867H50Z" fill="#FF8FB8"/>
<path d="M50 33.8867V45.6055C50 48.0283 48.0283 50 45.6054 50H25V33.8867H50Z" fill="#FF5F96"/>
<path d="M25.0002 23.6328C19.3459 23.6328 14.7462 28.2324 14.7462 33.8867C14.7462 39.5303 19.3371 44.1406 25.0002 44.1406C30.6662 44.1406 35.2541 39.5283 35.2541 33.8867C35.2541 28.2324 30.6545 23.6328 25.0002 23.6328Z" fill="#FFF2FB"/>
<path d="M35.2539 33.8867C35.2539 39.5283 30.666 44.1406 25 44.1406V23.6328C30.6543 23.6328 35.2539 28.2324 35.2539 33.8867Z" fill="#FFDFEA"/>
<path d="M25 29.4922C22.5771 29.4922 20.6054 31.4639 20.6054 33.8867C20.6054 36.3037 22.5713 38.2813 25 38.2813C27.4267 38.2813 29.3945 36.3057 29.3945 33.8867C29.3945 31.4639 27.4228 29.4922 25 29.4922Z" fill="#FFDFEA"/>
<path d="M29.3945 33.8867C29.3945 36.3057 27.4267 38.2813 25 38.2813V29.4922C27.4228 29.4922 29.3945 31.4639 29.3945 33.8867Z" fill="#FFBFBF"/>
<path d="M7.42205 26.5625C8.23106 26.5625 8.88689 25.9067 8.88689 25.0977C8.88689 24.2886 8.23106 23.6328 7.42205 23.6328C6.61304 23.6328 5.9572 24.2886 5.9572 25.0977C5.9572 25.9067 6.61304 26.5625 7.42205 26.5625Z" fill="#97DE3D"/>
<path d="M42.5781 26.5625H39.6484C38.8394 26.5625 38.1835 25.9066 38.1835 25.0977C38.1835 24.2887 38.8394 23.6328 39.6484 23.6328H42.5781C43.3871 23.6328 44.0429 24.2887 44.0429 25.0977C44.0429 25.9066 43.3871 26.5625 42.5781 26.5625Z" fill="#59C36A"/>
<path d="M26.465 1.46484V4.39453C26.465 5.20313 25.8087 5.85938 25.0001 5.85938C24.1915 5.85938 23.5353 5.20313 23.5353 4.39453V1.46484C23.5353 0.65625 24.1915 0 25.0001 0C25.8087 0 26.465 0.65625 26.465 1.46484Z" fill="#FFE580"/>
<path d="M26.4648 1.46484V4.39453C26.4648 5.20313 25.8086 5.85938 25 5.85938V0C25.8086 0 26.4648 0.65625 26.4648 1.46484Z" fill="#FFCC66"/>
<path d="M28.7876 7.93095C28.2156 7.35888 28.2156 6.43144 28.7876 5.85937L30.8592 3.78779C31.4312 3.21572 32.3587 3.21572 32.9308 3.78779C33.5029 4.35986 33.5029 5.2873 32.9308 5.85937L30.8592 7.93095C30.2872 8.50303 29.3597 8.50303 28.7876 7.93095Z" fill="#FFCC66"/>
<path d="M19.1407 7.93095L17.0692 5.85937C16.4972 5.2873 16.4972 4.35986 17.0692 3.78779C17.6411 3.21572 18.5686 3.21572 19.1407 3.78779L21.2123 5.85937C21.7843 6.43144 21.7843 7.35888 21.2123 7.93095C20.6404 8.50293 19.7129 8.50312 19.1407 7.93095Z" fill="#FFE580"/>
</g>
<defs>
<clipPath id="clip0_169_22933">
<rect width="49.8223" height="49.8223" fill="white" transform="scale(1.00357)"/>
</clipPath>
</defs>
</svg>
