<svg width="60" height="60" viewBox="0 0 60 60" fill="none" xmlns="http://www.w3.org/2000/svg">
<path d="M26.6426 37.9185H22.5223L25.0975 22.0926H29.2182L26.6426 37.9185ZM19.0561 22.0926L15.1279 32.9778L14.6631 30.6338L14.6635 30.6346L13.2771 23.5175C13.2771 23.5175 13.1095 22.0926 11.3226 22.0926H4.82864L4.75244 22.3606C4.75244 22.3606 6.7383 22.7737 9.06241 24.1695L12.6421 37.9189H16.9352L23.4905 22.0926H19.0561ZM51.4644 37.9185H55.2477L51.9491 22.0922H48.637C47.1074 22.0922 46.7349 23.2716 46.7349 23.2716L40.5898 37.9185H44.8849L45.7439 35.5678H50.9818L51.4644 37.9185ZM46.9305 32.3204L49.0954 26.3979L50.3134 32.3204H46.9305ZM40.912 25.8984L41.5 22.4998C41.5 22.4998 39.6856 21.8098 37.7941 21.8098C35.7494 21.8098 30.8938 22.7035 30.8938 27.049C30.8938 31.1376 36.5927 31.1884 36.5927 33.3359C36.5927 35.4835 31.4809 35.0987 29.7939 33.7445L29.1814 37.2979C29.1814 37.2979 31.0212 38.1916 33.8321 38.1916C36.6439 38.1916 40.8857 36.7357 40.8857 32.7733C40.8857 28.6585 35.1356 28.2754 35.1356 26.4864C35.136 24.697 39.1488 24.9268 40.912 25.8984Z" fill="#2566AF"/>
<path d="M14.6635 30.6341L13.2771 23.517C13.2771 23.517 13.1095 22.092 11.3226 22.092H4.82864L4.75244 22.36C4.75244 22.36 7.87368 23.0069 10.8675 25.4305C13.7301 27.7469 14.6635 30.6341 14.6635 30.6341Z" fill="#E6A540"/>
</svg>
