<svg width="46" height="43" viewBox="0 0 46 43" fill="none" xmlns="http://www.w3.org/2000/svg">
<g clip-path="url(#clip0_192_2585)">
<path d="M20.3125 3.6875C16.6465 3.6875 13.2819 4.97644 10.6458 7.125V30.875C13.2819 33.0236 16.6465 34.3125 20.3125 34.3125C28.7694 34.3125 35.625 27.4569 35.625 19C35.625 10.5431 28.7694 3.6875 20.3125 3.6875Z" fill="#FF4155"/>
<path d="M33.8747 19C33.8747 20.4137 34.8134 21.6075 36.101 21.9937C36.6328 22.1531 36.9997 22.6381 36.9997 23.1931V29.625C36.9997 30.3156 36.4403 30.875 35.7497 30.875H29.1497C28.7078 30.875 28.2884 30.6494 28.0722 30.2638C27.8584 29.8825 27.4497 29.625 26.9816 29.625L25.7316 19L26.9816 8.375C27.4497 8.375 27.8584 8.1175 28.0722 7.73625C28.2884 7.35062 28.7078 7.125 29.1497 7.125H35.7497C36.4403 7.125 36.9997 7.68437 36.9997 8.375V14.8069C36.9997 15.3619 36.6328 15.8469 36.101 16.0063C34.8134 16.3925 33.8747 17.5863 33.8747 19Z" fill="#FFB332"/>
<path d="M30.7316 29.625V8.375C30.7316 7.68437 31.2909 7.125 31.9816 7.125H29.1497C28.7078 7.125 28.2884 7.35062 28.0722 7.73625C27.8584 8.1175 27.4497 8.375 26.9816 8.375L25.7316 19L26.9816 29.625C27.4497 29.625 27.8584 29.8825 28.0722 30.2638C28.2884 30.6494 28.7078 30.875 29.1497 30.875H31.9816C31.2909 30.875 30.7316 30.3156 30.7316 29.625Z" fill="#FF9433"/>
<path d="M26.9819 29.625C26.5131 29.625 26.105 29.8825 25.8913 30.2638C25.675 30.6494 25.255 30.875 24.8137 30.875H10.645C7.2 28.0675 5 23.7906 5 19C5 14.2094 7.2 9.9325 10.645 7.125H24.8137C25.255 7.125 25.675 7.35062 25.8913 7.73625C26.105 8.1175 26.5131 8.375 26.9819 8.375V29.625Z" fill="#FFDD40"/>
<path d="M10.6458 30.875H18.3337C16.9531 30.875 15.8337 29.7557 15.8337 28.375V9.625C15.8337 8.24431 16.9531 7.125 18.3337 7.125H10.6458C7.20069 9.93281 5 14.2091 5 19C5 23.7909 7.20069 28.0672 10.6458 30.875Z" fill="#FFC839"/>
<path d="M11.5285 26.3473C11.3182 26.3473 11.1051 26.2941 10.9095 26.1824C10.31 25.8399 10.1018 25.0762 10.4443 24.4769L17.4126 12.2826C17.7551 11.6832 18.5186 11.4751 19.1181 11.8174C19.7175 12.1599 19.9257 12.9236 19.5832 13.5229L12.6149 25.7172C12.3842 26.121 11.9624 26.3473 11.5285 26.3473Z" fill="white"/>
<path d="M10.163 19.0757C8.30604 19.0757 6.79529 17.4111 6.79529 15.3649C6.79529 13.3187 8.30604 11.6541 10.163 11.6541C12.02 11.6541 13.5307 13.3187 13.5307 15.3649C13.5307 17.4111 12.02 19.0757 10.163 19.0757ZM10.163 14.1541C9.69266 14.1541 9.29529 14.7086 9.29529 15.3649C9.29529 16.0212 9.6926 16.5757 10.163 16.5757C10.6334 16.5757 11.0307 16.0212 11.0307 15.3649C11.0307 14.7086 10.6333 14.1541 10.163 14.1541Z" fill="white"/>
<path d="M19.8638 26.347C18.0068 26.347 16.4961 24.6824 16.4961 22.6362C16.4961 20.59 18.0068 18.9253 19.8638 18.9253C21.7208 18.9253 23.2315 20.59 23.2315 22.6362C23.2315 24.6824 21.7208 26.347 19.8638 26.347ZM19.8638 21.4253C19.3935 21.4253 18.9961 21.9798 18.9961 22.6362C18.9961 23.2925 19.3935 23.847 19.8638 23.847C20.3342 23.847 20.7315 23.2925 20.7315 22.6362C20.7315 21.9798 20.3342 21.4253 19.8638 21.4253Z" fill="white"/>
<path d="M19.7097 21.4685C19.0748 21.3923 18.5825 20.8528 18.5825 20.1974C18.5825 19.6165 18.9694 19.1265 19.4994 18.9695C17.8132 19.1704 16.4961 20.7477 16.4961 22.6583C16.4961 24.5688 17.8133 26.1462 19.4994 26.347C18.9694 26.19 18.5825 25.7 18.5825 25.1191C18.5825 24.4638 19.0748 23.9243 19.7097 23.848C19.3099 23.743 18.9961 23.2413 18.9961 22.6583C18.9961 22.0752 19.3099 21.5735 19.7097 21.4685Z" fill="#D3DCFB"/>
<path d="M10.0088 14.1734C9.37404 14.0971 8.88173 13.5576 8.88173 12.9023C8.88173 12.3213 9.2686 11.8314 9.7986 11.6743C8.11241 11.8752 6.79529 13.4526 6.79529 15.3631C6.79529 17.2736 8.11248 18.851 9.7986 19.0519C9.2686 18.8948 8.88173 18.4049 8.88173 17.8239C8.88173 17.1686 9.37404 16.6291 10.0088 16.5528C9.6091 16.4479 9.29529 15.9461 9.29529 15.3631C9.29529 14.7801 9.6091 14.2784 10.0088 14.1734Z" fill="#D3DCFB"/>
<path d="M15.0137 20.2811C14.306 20.2811 13.7324 19.7075 13.7324 18.9998C13.7324 18.869 13.7522 18.7429 13.7887 18.624L10.4442 24.4768C10.1017 25.0762 10.3099 25.8398 10.9093 26.1823C11.105 26.2941 11.318 26.3473 11.5283 26.3473C11.9622 26.3473 12.384 26.121 12.6148 25.7172L15.9627 19.8585C15.7284 20.1174 15.3905 20.2811 15.0137 20.2811Z" fill="#D3DCFB"/>
<path d="M25.2628 14.7366H22.7628C22.5039 14.7366 22.2941 14.5268 22.2941 14.2678C22.2941 14.0089 22.5039 13.7991 22.7628 13.7991H25.2628C25.5218 13.7991 25.7316 14.0089 25.7316 14.2678C25.7316 14.5268 25.5218 14.7366 25.2628 14.7366Z" fill="#FFC839"/>
<path d="M25.2628 17.2366H22.7628C22.5039 17.2366 22.2941 17.0268 22.2941 16.7678C22.2941 16.5089 22.5039 16.2991 22.7628 16.2991H25.2628C25.5218 16.2991 25.7316 16.5089 25.7316 16.7678C25.7316 17.0268 25.5218 17.2366 25.2628 17.2366Z" fill="#FFC839"/>
<path d="M24.7941 12.125C25.3118 12.125 25.7316 11.7053 25.7316 11.1875C25.7316 10.6697 25.3118 10.25 24.7941 10.25C24.2763 10.25 23.8566 10.6697 23.8566 11.1875C23.8566 11.7053 24.2763 12.125 24.7941 12.125Z" fill="#FFC839"/>
<path d="M31.2003 25.7188H28.7003C28.4414 25.7188 28.2316 25.5089 28.2316 25.25C28.2316 24.9911 28.4414 24.7812 28.7003 24.7812H31.2003C31.4593 24.7812 31.6691 24.9911 31.6691 25.25C31.6691 25.5089 31.4593 25.7188 31.2003 25.7188Z" fill="white"/>
<path d="M31.2003 28.2188H28.7003C28.4414 28.2188 28.2316 28.0089 28.2316 27.75C28.2316 27.4911 28.4414 27.2812 28.7003 27.2812H31.2003C31.4593 27.2812 31.6691 27.4911 31.6691 27.75C31.6691 28.0089 31.4593 28.2188 31.2003 28.2188Z" fill="white"/>
<path d="M29.1691 23.1072C29.6868 23.1072 30.1066 22.6874 30.1066 22.1697C30.1066 21.6519 29.6868 21.2322 29.1691 21.2322C28.6513 21.2322 28.2316 21.6519 28.2316 22.1697C28.2316 22.6874 28.6513 23.1072 29.1691 23.1072Z" fill="white"/>
<circle cx="34" cy="4" r="1" fill="#FF4155"/>
</g>
<circle cx="3" cy="3" r="3" fill="#FF4155"/>
<circle cx="4" cy="34" r="2" fill="#FF4155"/>
<circle cx="26.5" cy="42.5" r="0.5" fill="#FF4155"/>
<circle cx="43.5" cy="21.5" r="2.5" fill="#FF4155"/>
<defs>
<clipPath id="clip0_192_2585">
<rect width="32" height="32" fill="white" transform="translate(5 3)"/>
</clipPath>
</defs>
</svg>
