<svg width="83" height="32" viewBox="0 0 83 32" fill="none" xmlns="http://www.w3.org/2000/svg">
<path d="M21.1185 2.5729C21.2206 5.10709 23.2206 14.7777 23.2206 14.7777C23.9556 16.7364 24.5884 14.7777 24.5884 14.7777C27.0081 6.833 22.0633 2.22894 22.0633 2.22894C20.801 1.42127 21.1185 2.5729 21.1185 2.5729ZM49.8292 1.19217C49.8292 1.19217 52.25 3.03416 49.8292 3.37934C49.8292 3.37934 40.7839 4.53036 34.0534 11.4407C34.0534 11.4407 23.9556 21.1095 20.1704 31.7033C20.1704 31.7033 18.9081 31.7033 19.3305 29.6316C19.7507 27.5593 22.2736 18.4623 33.526 7.29549C33.526 7.29549 44.3621 -3.52859 49.8292 1.19217Z" fill="#FF4600"/>
<path d="M3.81199 16.5206C4.21155 16.6128 4.57037 16.6581 5.09716 16.6581C7.16024 16.6581 8.55033 15.2052 8.55033 13.3602C8.55033 11.7002 7.47665 11.1015 6.08769 11.1015C5.47551 11.1015 5.01234 11.148 4.71769 11.239L3.81199 16.5206ZM2.65349 9.32551C3.51734 9.09396 4.80251 8.9565 6.06592 8.9565C7.39351 8.9565 8.78359 9.25525 9.70994 10.0635C10.5314 10.7551 11.0158 11.7681 11.0158 13.1537C11.0158 14.9975 10.215 16.498 9.2038 17.3735C8.06706 18.365 6.44372 18.8495 4.75899 18.8495C4.25284 18.8495 3.81199 18.7792 3.43252 18.734L2.40014 24.615H0L2.65349 9.32551Z" fill="black"/>
<path d="M17.5223 15.3199C17.27 15.2496 16.9547 15.205 16.5122 15.205C14.2583 15.205 12.4887 17.9964 12.4887 20.5563C12.4887 21.7305 12.8888 22.7001 13.9636 22.7001C15.121 22.7001 16.5122 21.133 16.9966 18.2726L17.5223 15.3199ZM16.5329 24.6148C16.5329 23.9446 16.6166 23.0465 16.702 22.0995H16.6595C15.6489 24.1535 14.2789 24.8677 12.9731 24.8677C11.1411 24.8677 9.93904 23.2994 9.93904 21.0401C9.93904 17.212 12.3827 13.1297 17.1646 13.1297C18.2807 13.1297 19.4816 13.36 20.2824 13.6367L19.2081 19.4945C18.9124 21.1544 18.7444 23.2768 18.7868 24.6148H16.5329Z" fill="black"/>
<path d="M34.2235 20.1636C34.2235 21.7068 34.9606 22.7937 36.2246 22.7937C38.0572 22.7937 39.2793 20.0249 39.2793 17.7882C39.2793 16.6341 38.7938 15.2045 37.3206 15.2045C35.3613 15.2045 34.2235 18.065 34.2235 20.1636ZM41.8067 17.7662C41.8067 21.5932 39.3837 24.8672 35.8881 24.8672C33.296 24.8672 31.6967 22.9073 31.6967 20.2314C31.6967 16.4276 34.1186 13.1298 37.6153 13.1298C40.3742 13.1298 41.8067 15.2974 41.8067 17.7662Z" fill="black"/>
<path d="M42.2678 24.6147L43.5954 16.8655C43.8476 15.5276 43.9949 14.3515 44.1216 13.3838H46.3136L46.0814 15.3901H46.1227C47.0697 13.8902 48.3767 13.1296 49.8092 13.1296C51.283 13.1296 52.4208 14.0992 52.4208 16.2204C52.4208 16.7268 52.3382 17.5107 52.2322 18.0648L51.1139 24.6147H48.6496L49.7439 18.2725C49.8092 17.8577 49.8717 17.3732 49.8717 16.9346C49.8717 15.9888 49.5558 15.3198 48.5871 15.3198C47.471 15.3198 46.0379 16.7953 45.5959 19.426L44.7114 24.6147H42.2678Z" fill="black"/>
<path d="M58.948 15.136C57.4095 15.136 56.3994 16.6346 56.1048 17.9964C58.6316 18.019 60.2549 17.65 60.2549 16.2901C60.2549 15.5753 59.7281 15.136 58.948 15.136ZM61.2862 23.9684C60.2744 24.5445 58.9067 24.8677 57.6628 24.8677C54.8218 24.8677 53.4518 22.9548 53.4518 20.2099C53.4518 16.8198 55.7253 13.1303 59.2644 13.1303C61.2862 13.1303 62.5713 14.398 62.5713 16.2901C62.5713 19.1719 59.8129 20.0938 55.8531 20.0022C55.8101 20.3938 55.8944 21.1544 56.1265 21.5931C56.5272 22.3549 57.2621 22.7465 58.2326 22.7465C59.3922 22.7465 60.3174 22.4233 61.0568 22.0085L61.2862 23.9684Z" fill="black"/>
<path d="M68.4885 15.136C66.9517 15.136 65.94 16.6346 65.6453 17.9964C68.1721 18.019 69.7955 17.65 69.7955 16.2901C69.7955 15.5753 69.2687 15.136 68.4885 15.136ZM70.8267 23.9684C69.8167 24.5445 68.4472 24.8677 67.2056 24.8677C64.3624 24.8677 62.9924 22.9548 62.9924 20.2099C62.9924 16.8198 65.2658 13.1303 68.805 13.1303C70.8267 13.1303 72.1141 14.398 72.1141 16.2901C72.1141 19.1719 69.3535 20.0938 65.3936 20.0022C65.3501 20.3938 65.4349 21.1544 65.6671 21.5931C66.0677 22.3549 66.8044 22.7465 67.7731 22.7465C68.9327 22.7465 69.858 22.4233 70.5974 22.0085L70.8267 23.9684Z" fill="black"/>
<path d="M72.2596 24.6147L73.4599 17.6958C73.7334 16.1049 73.8807 14.3753 73.9845 13.3838H76.1129C76.0498 14.1444 75.9873 14.9282 75.8813 15.7365H75.9438C76.6419 14.2366 77.7557 13.1296 79.1469 13.1296C79.3378 13.1296 79.5264 13.1534 79.6955 13.1534L79.21 15.7823C79.0839 15.7585 78.9154 15.7585 78.7463 15.7585C76.9968 15.7585 75.8813 17.6958 75.4823 20.0938L74.7021 24.6147H72.2596Z" fill="black"/>
<path d="M81.5588 14.4111H81.7385C81.9226 14.4111 82.0443 14.2987 82.0443 14.1288C82.0443 13.9376 81.9165 13.8539 81.7323 13.8539C81.6475 13.8539 81.5872 13.8606 81.5588 13.868V14.4111ZM81.383 13.7336C81.4723 13.7158 81.6001 13.703 81.7189 13.703C81.9053 13.703 82.0292 13.7445 82.1113 13.8252C82.1788 13.8906 82.2178 13.9926 82.2178 14.1099C82.2178 14.303 82.1068 14.4337 81.9639 14.4856V14.493C82.0677 14.5321 82.1285 14.639 82.1631 14.7929C82.2067 14.9982 82.239 15.143 82.2675 15.201H82.0856C82.0638 15.1558 82.0331 15.0306 81.9985 14.8455C81.9572 14.6402 81.8819 14.5644 81.7234 14.5571H81.5588V15.201H81.383V13.7336Z" fill="black"/>
<path d="M81.786 13.13C81.1164 13.13 80.5723 13.7257 80.5723 14.4588C80.5723 15.1919 81.1164 15.7882 81.786 15.7882C82.4557 15.7882 82.9998 15.1919 82.9998 14.4588C82.9998 13.7257 82.4557 13.13 81.786 13.13ZM81.786 13.3353C82.3519 13.3353 82.8112 13.8369 82.8112 14.4588C82.8112 15.0801 82.3519 15.5835 81.786 15.5835C81.2185 15.5835 80.7587 15.0801 80.7587 14.4588C80.7587 13.8369 81.2185 13.3353 81.786 13.3353Z" fill="black"/>
</svg>
