<svg width="175" height="480" viewBox="0 0 175 480" fill="none" xmlns="http://www.w3.org/2000/svg">
<path d="M172.129 478.82L5.97981 89.3617C2.31429 80.7696 2.02715 71.1105 5.17585 62.3158L14.8076 35.4133" stroke="#FF1D1D" stroke-width="6"/>
<path fill-rule="evenodd" clip-rule="evenodd" d="M11.9458 30.1043L19.5544 33.1095C21.5712 33.9061 24.074 32.3532 24.8547 30.3766L33.5716 8.30699C34.352 6.33109 33.3507 4.0825 31.3339 3.2859L23.7253 0.280718C21.7091 -0.515621 19.4405 0.440714 18.6598 2.41724L9.94289 24.4869C9.16351 26.4639 9.92961 29.308 11.9458 30.1043ZM12.4873 19.9179L15.4089 12.5209L17.2626 12.9958L16.0589 16.0433L12.4873 19.9179ZM16.1257 17.6201C16.1257 17.6201 14.1927 20.2359 12.5585 22.4493C17.7977 26.7147 24.2447 27.0972 24.3395 27.1028L24.3406 27.1029L25.0342 21.1387L16.1257 17.6201ZM26.2187 19.8253L27.3438 16.9769L29.0228 17.8959L26.1791 25.0956L26.2187 19.8253ZM29.4543 16.8033L32.0488 10.2345L29.8266 10.6909L27.7738 15.8881L29.4543 16.8033ZM31.7787 7.96977L29.508 9.51833L20.5976 5.99894L19.9973 3.31645L31.7787 7.96977ZM17.6956 11.8994L19.6672 6.90768L18.3575 5.05553L15.8409 11.4271L17.6956 11.8994Z" fill="#FF1D1D"/>
</svg>
