<svg width="98" height="432" viewBox="0 0 98 432" fill="none" xmlns="http://www.w3.org/2000/svg">
<path fill-rule="evenodd" clip-rule="evenodd" d="M15.8885 32.8406L23.2839 29.3674C25.2442 28.4468 25.8292 25.5638 24.927 23.6427L14.8525 2.19162C13.9506 0.271107 11.6302 -0.540906 9.66989 0.379749L2.27454 3.85295C0.314859 4.77331 -0.543552 7.07749 0.358702 8.99862L10.4331 30.4497C11.3367 32.3702 13.9289 33.761 15.8885 32.8406ZM8.85407 25.4709L5.47749 18.2813L7.09218 17.259L8.48334 20.2211L8.85407 25.4709ZM9.67541 21.2523C9.67541 21.2523 10.2533 24.449 10.7432 27.1528C17.432 26.2652 22.1252 21.8403 22.1942 21.7752L22.195 21.7745L18.3342 17.1857L9.67541 21.2523ZM18.1906 15.4251L16.8903 12.6565L18.7082 12.0653L21.9948 19.0632L18.1906 15.4251ZM18.2095 11.0033L15.211 4.61868L14.0209 6.54676L16.3933 11.5983L18.2095 11.0033ZM13.3796 3.26406L12.9503 5.97529L4.28959 10.0428L1.92839 8.64207L13.3796 3.26406ZM6.5917 16.1933L4.31306 11.3415L2.06965 11.0252L4.97817 17.2182L6.5917 16.1933Z" fill="#26CA7D"/>
<path d="M20.2421 33.7402L55.7703 124.312L74.285 220.388L94.8013 321.969V378.013L86.7949 431.556" stroke="#26CA7D" stroke-width="6"/>
</svg>
