<svg width="435" height="356" viewBox="0 0 435 356" fill="none" xmlns="http://www.w3.org/2000/svg">
<g opacity="0.1" filter="url(#filter0_d_198_7807)">
<rect x="38" y="24" width="335" height="73" rx="15" fill="white"/>
<rect x="38.5" y="24.5" width="334" height="72" rx="14.5" stroke="#F4F4F4"/>
</g>
<g clip-path="url(#clip0_198_7807)">
<path d="M195.181 51.6563H190.428C190.271 51.6562 190.119 51.7126 189.999 51.8153C189.879 51.918 189.8 52.0604 189.776 52.2166L187.853 64.47C187.845 64.5269 187.848 64.585 187.864 64.6404C187.879 64.6957 187.907 64.747 187.944 64.7907C187.981 64.8344 188.027 64.8695 188.079 64.8935C188.132 64.9175 188.188 64.9299 188.245 64.9298H190.514C190.672 64.9299 190.824 64.8734 190.944 64.7705C191.063 64.6676 191.143 64.5251 191.167 64.3687L191.685 61.0638C191.71 60.9075 191.789 60.7651 191.908 60.6623C192.028 60.5594 192.18 60.5028 192.337 60.5027H193.842C196.973 60.5027 198.779 58.9795 199.251 55.9611C199.464 54.6405 199.26 53.6029 198.645 52.8762C197.97 52.0783 196.772 51.6563 195.181 51.6563ZM195.729 56.1315C195.469 57.8462 194.166 57.8462 192.906 57.8462H192.189L192.692 54.644C192.707 54.5503 192.755 54.465 192.826 54.4034C192.898 54.3417 192.989 54.3079 193.084 54.3079H193.412C194.271 54.3079 195.08 54.3079 195.499 54.7998C195.748 55.0932 195.824 55.5292 195.729 56.1315ZM209.388 56.0763H207.112C207.018 56.0763 206.926 56.1102 206.855 56.1718C206.783 56.2334 206.735 56.3187 206.721 56.4124L206.62 57.0525L206.461 56.8205C205.968 56.1015 204.869 55.8611 203.773 55.8611C201.258 55.8611 199.11 57.7763 198.691 60.4629C198.474 61.803 198.783 63.0845 199.539 63.9782C200.233 64.7998 201.225 65.1422 202.406 65.1422C204.432 65.1422 205.556 63.8321 205.556 63.8321L205.454 64.468C205.445 64.5248 205.449 64.5829 205.464 64.6384C205.48 64.6938 205.507 64.7452 205.544 64.789C205.581 64.8329 205.627 64.8681 205.679 64.8923C205.731 64.9165 205.788 64.929 205.845 64.9291H207.895C208.053 64.9292 208.205 64.8727 208.324 64.7698C208.444 64.6669 208.523 64.5244 208.548 64.368L209.778 56.5361C209.787 56.4794 209.783 56.4214 209.768 56.366C209.753 56.3107 209.725 56.2594 209.688 56.2157C209.651 56.172 209.605 56.1369 209.553 56.1128C209.501 56.0888 209.445 56.0763 209.388 56.0763ZM206.215 60.53C205.996 61.8373 204.964 62.7149 203.648 62.7149C202.987 62.7149 202.458 62.5018 202.119 62.0979C201.783 61.6968 201.655 61.126 201.762 60.4901C201.967 59.194 203.017 58.2878 204.313 58.2878C204.959 58.2878 205.484 58.5037 205.83 58.911C206.177 59.3226 206.315 59.8969 206.215 60.53ZM221.509 56.0763H219.222C219.114 56.0765 219.008 56.1031 218.913 56.1539C218.817 56.2047 218.736 56.2781 218.675 56.3677L215.521 61.0393L214.184 56.5501C214.143 56.4132 214.059 56.2932 213.945 56.2078C213.831 56.1225 213.692 56.0764 213.55 56.0763H211.302C211.239 56.0762 211.177 56.0912 211.121 56.12C211.065 56.1489 211.016 56.1909 210.98 56.2424C210.943 56.294 210.919 56.3536 210.91 56.4163C210.9 56.4791 210.906 56.5431 210.926 56.6032L213.446 64.0361L211.077 67.3977C211.035 67.4573 211.01 67.5274 211.005 67.6003C211 67.6732 211.015 67.7461 211.048 67.8111C211.082 67.876 211.132 67.9305 211.194 67.9685C211.256 68.0065 211.328 68.0266 211.4 68.0265H213.685C213.791 68.0267 213.896 68.0008 213.991 67.9512C214.086 67.9015 214.167 67.8295 214.227 67.7414L221.834 56.7017C221.876 56.642 221.9 56.572 221.904 56.4995C221.909 56.4269 221.894 56.3545 221.86 56.2901C221.827 56.2256 221.776 56.1717 221.714 56.134C221.652 56.0963 221.582 56.0764 221.509 56.0763Z" fill="white"/>
<path d="M229.081 51.656H224.328C224.171 51.656 224.019 51.7125 223.899 51.8152C223.78 51.918 223.701 52.0602 223.676 52.2163L221.754 64.4698C221.745 64.5265 221.748 64.5846 221.764 64.6399C221.779 64.6952 221.807 64.7465 221.844 64.7902C221.881 64.8339 221.927 64.8689 221.979 64.893C222.031 64.9171 222.087 64.9295 222.144 64.9295H224.584C224.694 64.9294 224.8 64.8897 224.884 64.8177C224.967 64.7458 225.023 64.6462 225.04 64.5368L225.585 61.0635C225.61 60.9072 225.689 60.7648 225.808 60.662C225.928 60.5591 226.08 60.5025 226.237 60.5024H227.741C230.872 60.5024 232.679 58.9792 233.151 55.9608C233.364 54.6402 233.159 53.6026 232.544 52.8759C231.87 52.078 230.672 51.656 229.081 51.656ZM229.63 56.1313C229.371 57.8459 228.068 57.8459 226.807 57.8459H226.09L226.594 54.6437C226.609 54.55 226.656 54.4646 226.728 54.403C226.799 54.3413 226.89 54.3075 226.985 54.3076H227.314C228.171 54.3076 228.981 54.3076 229.4 54.7995C229.649 55.093 229.725 55.529 229.63 56.1313ZM243.288 56.0761H241.013C240.919 56.0758 240.827 56.1096 240.756 56.1713C240.684 56.2329 240.637 56.3184 240.623 56.4121L240.522 57.0522L240.362 56.8202C239.869 56.1012 238.771 55.8609 237.675 55.8609C235.16 55.8609 233.012 57.776 232.594 60.4626C232.377 61.8028 232.685 63.0842 233.441 63.9779C234.136 64.7996 235.127 65.1419 236.308 65.1419C238.334 65.1419 239.458 63.8318 239.458 63.8318L239.356 64.4677C239.347 64.5246 239.351 64.5829 239.366 64.6384C239.382 64.694 239.409 64.7454 239.446 64.7893C239.484 64.8332 239.53 64.8683 239.582 64.8924C239.634 64.9165 239.691 64.9289 239.748 64.9288H241.798C241.955 64.9287 242.107 64.8722 242.227 64.7693C242.346 64.6664 242.425 64.524 242.45 64.3678L243.68 56.5358C243.689 56.4789 243.685 56.4208 243.67 56.3654C243.654 56.3101 243.627 56.2588 243.589 56.2151C243.552 56.1714 243.506 56.1364 243.454 56.1124C243.402 56.0884 243.345 56.076 243.288 56.0761ZM240.115 60.5297C239.897 61.837 238.864 62.7146 237.547 62.7146C236.888 62.7146 236.358 62.5015 236.019 62.0976C235.683 61.6966 235.556 61.1257 235.662 60.4899C235.868 59.1937 236.916 58.2875 238.212 58.2875C238.859 58.2875 239.384 58.5034 239.73 58.9108C240.078 59.3223 240.216 59.8967 240.115 60.5297ZM245.971 51.9921L244.02 64.4698C244.011 64.5265 244.015 64.5846 244.03 64.6399C244.046 64.6952 244.073 64.7465 244.11 64.7902C244.147 64.8339 244.193 64.8689 244.245 64.893C244.297 64.9171 244.354 64.9295 244.411 64.9295H246.372C246.698 64.9295 246.974 64.692 247.024 64.3685L248.948 52.1157C248.957 52.0589 248.954 52.0009 248.938 51.9455C248.923 51.8902 248.895 51.8389 248.858 51.7951C248.821 51.7514 248.775 51.7162 248.723 51.6921C248.671 51.6679 248.615 51.6554 248.557 51.6553H246.361C246.267 51.6556 246.176 51.6897 246.105 51.7514C246.033 51.8131 245.986 51.8984 245.971 51.9921Z" fill="white"/>
<path d="M168.116 67.3107L168.479 64.9896L167.67 64.9707H163.804L166.49 47.843C166.498 47.7907 166.525 47.743 166.565 47.7086C166.605 47.6742 166.656 47.6555 166.709 47.6558H173.227C175.391 47.6558 176.885 48.1085 177.665 49.0022C178.03 49.4214 178.263 49.8595 178.375 50.3416C178.494 50.8475 178.496 51.4519 178.38 52.189L178.372 52.2429V52.7152L178.738 52.9234C179.017 53.0655 179.267 53.2578 179.478 53.4908C179.79 53.8492 179.993 54.3048 180.078 54.8449C180.166 55.4004 180.137 56.0613 179.993 56.8097C179.826 57.6705 179.556 58.4202 179.192 59.0337C178.871 59.5833 178.439 60.0593 177.924 60.4311C177.44 60.7763 176.865 61.0383 176.216 61.206C175.586 61.3709 174.868 61.4541 174.081 61.4541H173.573C173.211 61.4541 172.858 61.5854 172.582 61.8209C172.305 62.0589 172.122 62.3877 172.065 62.7488L172.026 62.9577L171.384 67.0487L171.355 67.1989C171.347 67.2464 171.334 67.2702 171.315 67.2863C171.296 67.3018 171.272 67.3104 171.248 67.3107H168.116Z" fill="white"/>
<path d="M179.084 52.2974C179.064 52.4224 179.042 52.5503 179.017 52.6817C178.157 57.1192 175.216 58.6522 171.46 58.6522H169.548C169.088 58.6522 168.701 58.9876 168.63 59.4432L167.65 65.6869L167.373 67.4568C167.362 67.527 167.366 67.5988 167.386 67.6672C167.405 67.7356 167.438 67.799 167.484 67.853C167.53 67.9071 167.587 67.9505 167.651 67.9803C167.716 68.0101 167.785 68.0255 167.856 68.0255H171.248C171.65 68.0255 171.991 67.7321 172.054 67.3338L172.088 67.1605L172.726 63.0856L172.767 62.862C172.83 62.4623 173.172 62.1689 173.574 62.1689H174.081C177.367 62.1689 179.94 60.8273 180.692 56.9452C181.006 55.3235 180.843 53.9694 180.012 53.017C179.749 52.7224 179.434 52.4786 179.084 52.2974Z" fill="white"/>
<path d="M178.184 51.9369C177.91 51.8571 177.631 51.7948 177.348 51.7504C176.79 51.6642 176.227 51.6228 175.662 51.6267H170.553C170.359 51.6266 170.17 51.6964 170.023 51.8235C169.875 51.9506 169.777 52.1267 169.748 52.3198L168.661 59.2413L168.629 59.4433C168.663 59.2229 168.774 59.0221 168.943 58.877C169.111 58.7319 169.326 58.6522 169.547 58.6523H171.46C175.216 58.6523 178.157 57.1186 179.017 52.6818C179.043 52.5504 179.064 52.4226 179.084 52.2975C178.857 52.1779 178.62 52.0776 178.377 51.9977C178.313 51.9764 178.249 51.9562 178.184 51.9369Z" fill="#252525"/>
<path d="M169.747 52.3199C169.777 52.1266 169.874 51.9505 170.022 51.8234C170.17 51.6964 170.358 51.6268 170.553 51.6274H175.662C176.267 51.6274 176.832 51.6673 177.348 51.7511C177.697 51.8062 178.041 51.8887 178.377 51.9978C178.631 52.0823 178.866 52.1822 179.084 52.2975C179.34 50.6576 179.082 49.5411 178.2 48.53C177.228 47.417 175.473 46.9404 173.227 46.9404H166.709C166.25 46.9404 165.859 47.2758 165.788 47.7321L163.073 65.0358C163.06 65.1162 163.065 65.1983 163.087 65.2766C163.109 65.3549 163.147 65.4275 163.2 65.4894C163.252 65.5512 163.318 65.601 163.391 65.6351C163.464 65.6692 163.544 65.6869 163.625 65.687H167.65L168.66 59.2414L169.747 52.3199Z" fill="white"/>
</g>
<g opacity="0.1" filter="url(#filter1_d_198_7807)">
<rect x="38" y="114" width="335" height="73" rx="15" fill="white"/>
<rect x="38.5" y="114.5" width="334" height="72" rx="14.5" stroke="#F4F4F4"/>
</g>
<path d="M202.643 157.918H198.522L201.097 142.092H205.218L202.643 157.918ZM195.056 142.092L191.128 152.978L190.663 150.634L190.664 150.634L189.277 143.517C189.277 143.517 189.109 142.092 187.323 142.092H180.829L180.752 142.36C180.752 142.36 182.738 142.774 185.062 144.169L188.642 157.919H192.935L199.49 142.092H195.056ZM227.464 157.918H231.248L227.949 142.092H224.637C223.107 142.092 222.735 143.271 222.735 143.271L216.59 157.918H220.885L221.744 155.568H226.982L227.464 157.918ZM222.93 152.32L225.095 146.398L226.313 152.32H222.93ZM216.912 145.898L217.5 142.5C217.5 142.5 215.686 141.81 213.794 141.81C211.749 141.81 206.894 142.703 206.894 147.049C206.894 151.137 212.593 151.188 212.593 153.336C212.593 155.483 207.481 155.098 205.794 153.744L205.181 157.298C205.181 157.298 207.021 158.191 209.832 158.191C212.644 158.191 216.886 156.735 216.886 152.773C216.886 148.658 211.136 148.275 211.136 146.486C211.136 144.697 215.149 144.927 216.912 145.898Z" fill="white"/>
<path d="M190.664 150.634L189.277 143.517C189.277 143.517 189.109 142.092 187.323 142.092H180.829L180.752 142.36C180.752 142.36 183.874 143.007 186.868 145.431C189.73 147.747 190.664 150.634 190.664 150.634Z" fill="white"/>
<g opacity="0.1" filter="url(#filter2_d_198_7807)">
<rect x="38" y="207" width="335" height="73" rx="15" fill="white"/>
<rect x="38.5" y="207.5" width="334" height="72" rx="14.5" stroke="#F4F4F4"/>
</g>
<g clip-path="url(#clip1_198_7807)">
<path d="M185.221 229.788C185.322 232.309 187.312 241.931 187.312 241.931C188.043 243.88 188.673 241.931 188.673 241.931C191.081 234.026 186.161 229.446 186.161 229.446C184.905 228.642 185.221 229.788 185.221 229.788ZM213.787 228.414C213.787 228.414 216.196 230.247 213.787 230.59C213.787 230.59 204.787 231.735 198.09 238.611C198.09 238.611 188.043 248.231 184.277 258.772C184.277 258.772 183.021 258.772 183.442 256.711C183.86 254.649 186.37 245.597 197.566 234.487C197.566 234.487 208.347 223.717 213.787 228.414Z" fill="white"/>
<path d="M168.001 243.665C168.398 243.757 168.755 243.802 169.28 243.802C171.332 243.802 172.715 242.357 172.715 240.521C172.715 238.869 171.647 238.274 170.265 238.274C169.656 238.274 169.195 238.32 168.902 238.41L168.001 243.665ZM166.848 236.506C167.708 236.276 168.986 236.139 170.243 236.139C171.564 236.139 172.948 236.437 173.869 237.241C174.687 237.929 175.168 238.937 175.168 240.315C175.168 242.15 174.372 243.643 173.366 244.514C172.235 245.501 170.619 245.983 168.943 245.983C168.44 245.983 168.001 245.913 167.623 245.868L166.596 251.719H164.208L166.848 236.506Z" fill="white"/>
<path d="M181.642 242.471C181.391 242.401 181.078 242.357 180.637 242.357C178.395 242.357 176.634 245.134 176.634 247.681C176.634 248.849 177.032 249.814 178.102 249.814C179.253 249.814 180.637 248.255 181.119 245.409L181.642 242.471ZM180.658 251.719C180.658 251.052 180.741 250.159 180.826 249.216H180.784C179.778 251.26 178.415 251.971 177.116 251.971C175.293 251.971 174.097 250.41 174.097 248.162C174.097 244.353 176.529 240.292 181.286 240.292C182.397 240.292 183.592 240.521 184.389 240.796L183.32 246.624C183.025 248.276 182.858 250.388 182.901 251.719H180.658Z" fill="white"/>
<path d="M198.26 247.291C198.26 248.826 198.993 249.908 200.251 249.908C202.074 249.908 203.29 247.153 203.29 244.927C203.29 243.779 202.807 242.357 201.341 242.357C199.392 242.357 198.26 245.203 198.26 247.291ZM205.805 244.905C205.805 248.713 203.394 251.971 199.916 251.971C197.337 251.971 195.746 250.021 195.746 247.358C195.746 243.573 198.155 240.292 201.635 240.292C204.38 240.292 205.805 242.449 205.805 244.905Z" fill="white"/>
<path d="M206.264 251.719L207.585 244.009C207.836 242.678 207.982 241.508 208.108 240.545H210.289L210.058 242.541H210.099C211.042 241.049 212.342 240.292 213.767 240.292C215.234 240.292 216.366 241.256 216.366 243.367C216.366 243.871 216.284 244.651 216.178 245.202L215.065 251.719H212.613L213.702 245.409C213.767 244.996 213.829 244.514 213.829 244.078C213.829 243.137 213.515 242.471 212.551 242.471C211.441 242.471 210.015 243.939 209.575 246.557L208.695 251.719H206.264Z" fill="white"/>
<path d="M222.86 242.288C221.329 242.288 220.324 243.779 220.031 245.134C222.545 245.156 224.161 244.789 224.161 243.436C224.161 242.725 223.636 242.288 222.86 242.288ZM225.187 251.076C224.18 251.649 222.819 251.971 221.581 251.971C218.755 251.971 217.392 250.067 217.392 247.336C217.392 243.963 219.654 240.292 223.175 240.292C225.187 240.292 226.465 241.554 226.465 243.436C226.465 246.303 223.721 247.221 219.781 247.13C219.738 247.519 219.822 248.276 220.053 248.712C220.452 249.471 221.183 249.86 222.148 249.86C223.302 249.86 224.223 249.539 224.958 249.126L225.187 251.076Z" fill="white"/>
<path d="M232.353 242.288C230.824 242.288 229.817 243.779 229.524 245.134C232.038 245.156 233.653 244.789 233.653 243.436C233.653 242.725 233.129 242.288 232.353 242.288ZM234.679 251.076C233.674 251.649 232.312 251.971 231.076 251.971C228.247 251.971 226.884 250.067 226.884 247.336C226.884 243.963 229.146 240.292 232.668 240.292C234.679 240.292 235.96 241.554 235.96 243.436C235.96 246.303 233.213 247.221 229.273 247.13C229.23 247.519 229.315 248.276 229.546 248.712C229.944 249.471 230.677 249.86 231.641 249.86C232.795 249.86 233.715 249.539 234.451 249.126L234.679 251.076Z" fill="white"/>
<path d="M236.105 251.719L237.299 244.835C237.571 243.252 237.718 241.531 237.821 240.545H239.939C239.876 241.301 239.814 242.081 239.709 242.886H239.771C240.465 241.393 241.574 240.292 242.958 240.292C243.148 240.292 243.335 240.315 243.504 240.315L243.021 242.931C242.895 242.907 242.727 242.907 242.559 242.907C240.818 242.907 239.709 244.835 239.312 247.221L238.535 251.719H236.105Z" fill="white"/>
<path d="M245.358 241.567H245.536C245.72 241.567 245.841 241.455 245.841 241.286C245.841 241.096 245.713 241.013 245.53 241.013C245.446 241.013 245.386 241.019 245.358 241.027V241.567ZM245.183 240.893C245.271 240.875 245.399 240.863 245.517 240.863C245.702 240.863 245.826 240.904 245.907 240.984C245.974 241.049 246.013 241.151 246.013 241.267C246.013 241.459 245.903 241.59 245.761 241.641V241.648C245.864 241.687 245.924 241.794 245.959 241.947C246.002 242.151 246.034 242.295 246.063 242.353H245.882C245.86 242.308 245.829 242.183 245.795 241.999C245.754 241.795 245.679 241.72 245.521 241.712H245.358V242.353H245.183V240.893Z" fill="white"/>
<path d="M245.584 240.292C244.917 240.292 244.376 240.885 244.376 241.614C244.376 242.344 244.917 242.937 245.584 242.937C246.25 242.937 246.791 242.344 246.791 241.614C246.791 240.885 246.25 240.292 245.584 240.292ZM245.584 240.496C246.147 240.496 246.604 240.995 246.604 241.614C246.604 242.232 246.147 242.733 245.584 242.733C245.019 242.733 244.561 242.232 244.561 241.614C244.561 240.995 245.019 240.496 245.584 240.496Z" fill="white"/>
</g>
<defs>
<filter id="filter0_d_198_7807" x="0" y="0" width="435" height="173" filterUnits="userSpaceOnUse" color-interpolation-filters="sRGB">
<feFlood flood-opacity="0" result="BackgroundImageFix"/>
<feColorMatrix in="SourceAlpha" type="matrix" values="0 0 0 0 0 0 0 0 0 0 0 0 0 0 0 0 0 0 127 0" result="hardAlpha"/>
<feOffset dx="12" dy="26"/>
<feGaussianBlur stdDeviation="25"/>
<feColorMatrix type="matrix" values="0 0 0 0 0.352941 0 0 0 0 0.423529 0 0 0 0 0.917647 0 0 0 0.07 0"/>
<feBlend mode="normal" in2="BackgroundImageFix" result="effect1_dropShadow_198_7807"/>
<feBlend mode="normal" in="SourceGraphic" in2="effect1_dropShadow_198_7807" result="shape"/>
</filter>
<filter id="filter1_d_198_7807" x="0" y="90" width="435" height="173" filterUnits="userSpaceOnUse" color-interpolation-filters="sRGB">
<feFlood flood-opacity="0" result="BackgroundImageFix"/>
<feColorMatrix in="SourceAlpha" type="matrix" values="0 0 0 0 0 0 0 0 0 0 0 0 0 0 0 0 0 0 127 0" result="hardAlpha"/>
<feOffset dx="12" dy="26"/>
<feGaussianBlur stdDeviation="25"/>
<feColorMatrix type="matrix" values="0 0 0 0 0.352941 0 0 0 0 0.423529 0 0 0 0 0.917647 0 0 0 0.07 0"/>
<feBlend mode="normal" in2="BackgroundImageFix" result="effect1_dropShadow_198_7807"/>
<feBlend mode="normal" in="SourceGraphic" in2="effect1_dropShadow_198_7807" result="shape"/>
</filter>
<filter id="filter2_d_198_7807" x="0" y="183" width="435" height="173" filterUnits="userSpaceOnUse" color-interpolation-filters="sRGB">
<feFlood flood-opacity="0" result="BackgroundImageFix"/>
<feColorMatrix in="SourceAlpha" type="matrix" values="0 0 0 0 0 0 0 0 0 0 0 0 0 0 0 0 0 0 127 0" result="hardAlpha"/>
<feOffset dx="12" dy="26"/>
<feGaussianBlur stdDeviation="25"/>
<feColorMatrix type="matrix" values="0 0 0 0 0.352941 0 0 0 0 0.423529 0 0 0 0 0.917647 0 0 0 0.07 0"/>
<feBlend mode="normal" in2="BackgroundImageFix" result="effect1_dropShadow_198_7807"/>
<feBlend mode="normal" in="SourceGraphic" in2="effect1_dropShadow_198_7807" result="shape"/>
</filter>
<clipPath id="clip0_198_7807">
<rect width="86" height="23" fill="white" transform="translate(163 46)"/>
</clipPath>
<clipPath id="clip1_198_7807">
<rect width="83" height="32" fill="white" transform="translate(164 227)"/>
</clipPath>
</defs>
</svg>
