<svg width="50" height="50" viewBox="0 0 50 50" fill="none" xmlns="http://www.w3.org/2000/svg">
<g clip-path="url(#clip0_198_8268)">
<path d="M7.42206 20.7032C6.61307 20.7032 5.95721 20.0473 5.95721 19.2383V16.3086C5.95721 15.4996 6.61307 14.8438 7.42206 14.8438C8.23104 14.8438 8.8869 15.4996 8.8869 16.3086V19.2383C8.8869 20.0473 8.23104 20.7032 7.42206 20.7032Z" fill="#66334D"/>
<path d="M35.2541 16.3085V19.2382C35.2541 20.0468 34.5979 20.703 33.7893 20.703H16.2111C15.4025 20.703 14.7463 20.0468 14.7463 19.2382V16.3085C14.7463 13.8856 16.7179 11.9139 19.1408 11.9139H30.8596C33.2824 11.9139 35.2541 13.8856 35.2541 16.3085Z" fill="#66334D"/>
<path d="M35.2539 16.3085V19.2382C35.2539 20.0468 34.5977 20.703 33.7891 20.703H25V11.9139H30.8594C33.2822 11.9139 35.2539 13.8856 35.2539 16.3085Z" fill="#66334D"/>
<path d="M35.2539 16.3085V19.2382C35.2539 20.0468 34.5977 20.703 33.7891 20.703H25V11.9139H30.8594C33.2822 11.9139 35.2539 13.8856 35.2539 16.3085Z" fill="#4D2739"/>
<path d="M50.0001 22.1682V33.8869L25 36.2307L0 33.8869V22.1682C0 19.7453 1.97168 17.7736 4.39454 17.7736H45.6055C48.0284 17.7736 50.0001 19.7453 50.0001 22.1682Z" fill="#8C466A"/>
<path d="M50 22.1682V33.8869L25 36.2307V17.7736H45.6055C48.0284 17.7736 50 19.7453 50 22.1682Z" fill="#66334D"/>
<path d="M50.0001 33.8866V45.6053C50.0001 48.0282 48.0284 49.9999 45.6055 49.9999H4.39454C1.97168 49.9999 0 48.0282 0 45.6053V33.8866H50.0001Z" fill="#FF8FB8"/>
<path d="M50 33.8866V45.6053C50 48.0282 48.0284 49.9999 45.6055 49.9999H25V33.8866H50Z" fill="#FF5F96"/>
<path d="M25.0002 23.6328C19.3459 23.6328 14.7463 28.2325 14.7463 33.8868C14.7463 39.5303 19.3371 44.1407 25.0002 44.1407C30.6662 44.1407 35.2541 39.5284 35.2541 33.8868C35.2541 28.2325 30.6545 23.6328 25.0002 23.6328Z" fill="#FFF2FB"/>
<path d="M35.2539 33.8868C35.2539 39.5284 30.666 44.1407 25 44.1407V23.6328C30.6543 23.6328 35.2539 28.2325 35.2539 33.8868Z" fill="#FFDFEA"/>
<path d="M25 29.492C22.5772 29.492 20.6055 31.4637 20.6055 33.8866C20.6055 36.3036 22.5713 38.2811 25 38.2811C27.4268 38.2811 29.3945 36.3055 29.3945 33.8866C29.3945 31.4637 27.4229 29.492 25 29.492Z" fill="#FFDFEA"/>
<path d="M29.3945 33.8866C29.3945 36.3055 27.4268 38.2811 25 38.2811V29.492C27.4229 29.492 29.3945 31.4637 29.3945 33.8866Z" fill="#FFBFBF"/>
<path d="M7.42206 26.5625C8.23107 26.5625 8.8869 25.9067 8.8869 25.0977C8.8869 24.2887 8.23107 23.6328 7.42206 23.6328C6.61305 23.6328 5.95721 24.2887 5.95721 25.0977C5.95721 25.9067 6.61305 26.5625 7.42206 26.5625Z" fill="#97DE3D"/>
<path d="M42.5781 26.5625H39.6484C38.8394 26.5625 38.1836 25.9067 38.1836 25.0977C38.1836 24.2887 38.8394 23.6328 39.6484 23.6328H42.5781C43.3871 23.6328 44.043 24.2887 44.043 25.0977C44.043 25.9067 43.3871 26.5625 42.5781 26.5625Z" fill="#59C36A"/>
<path d="M26.465 1.46485V4.39454C26.465 5.20313 25.8088 5.85938 25.0002 5.85938C24.1916 5.85938 23.5353 5.20313 23.5353 4.39454V1.46485C23.5353 0.656251 24.1916 0 25.0002 0C25.8088 0 26.465 0.656251 26.465 1.46485Z" fill="#FFE580"/>
<path d="M26.4648 1.46485V4.39454C26.4648 5.20313 25.8086 5.85938 25 5.85938V0C25.8086 0 26.4648 0.656251 26.4648 1.46485Z" fill="#FFCC66"/>
<path d="M28.7877 7.93084C28.2156 7.35877 28.2156 6.43133 28.7877 5.85926L30.8593 3.78767C31.4312 3.2156 32.3588 3.2156 32.9309 3.78767C33.5029 4.35974 33.5029 5.28719 32.9309 5.85926L30.8593 7.93084C30.2873 8.50291 29.3597 8.50291 28.7877 7.93084Z" fill="#FFCC66"/>
<path d="M19.1408 7.93084L17.0692 5.85926C16.4972 5.28719 16.4972 4.35974 17.0692 3.78767C17.6412 3.2156 18.5686 3.2156 19.1408 3.78767L21.2124 5.85926C21.7843 6.43133 21.7843 7.35877 21.2124 7.93084C20.6404 8.50281 19.7129 8.50301 19.1408 7.93084Z" fill="#FFE580"/>
</g>
<defs>
<clipPath id="clip0_198_8268">
<rect width="49.8223" height="49.8223" fill="white" transform="scale(1.00357)"/>
</clipPath>
</defs>
</svg>
