<svg width="57" height="58" viewBox="0 0 57 58" fill="none" xmlns="http://www.w3.org/2000/svg">
<g clip-path="url(#clip0_198_6530)">
<path d="M30 53C41.0457 53 50 44.0457 50 33C50 21.9543 41.0457 13 30 13C18.9543 13 10 21.9543 10 33C10 44.0457 18.9543 53 30 53Z" fill="#32BA7C"/>
<path d="M24.8898 42.022L35.1737 52.3059C43.691 50.0346 50.0002 42.2744 50.0002 32.9999C50.0002 32.8106 50.0002 32.6214 50.0002 32.4321L41.9245 24.9873L24.8898 42.022Z" fill="#0AA06E"/>
<path d="M30.5046 37.4799C31.3879 38.3632 31.3879 39.8774 30.5046 40.7606L28.675 42.5903C27.7917 43.4736 26.2775 43.4736 25.3942 42.5903L17.3816 34.5146C16.4983 33.6313 16.4983 32.1171 17.3816 31.2338L19.2112 29.4042C20.0945 28.5209 21.6087 28.5209 22.492 29.4042L30.5046 37.4799Z" fill="white"/>
<path d="M37.5077 23.5365C38.391 22.6532 39.9051 22.6532 40.7884 23.5365L42.6181 25.3661C43.5014 26.2494 43.5014 27.7636 42.6181 28.6469L28.738 42.4639C27.8547 43.3472 26.3405 43.3472 25.4572 42.4639L23.6275 40.6343C22.7443 39.751 22.7443 38.2368 23.6275 37.3535L37.5077 23.5365Z" fill="white"/>
</g>
<circle cx="55" cy="5" r="2" fill="#32BA7C"/>
<circle cx="4" cy="1" r="1" fill="#32BA7C"/>
<circle cx="54" cy="57" r="1" fill="#32BA7C"/>
<circle cx="4.5" cy="52.5" r="4.5" fill="#32BA7C"/>
<defs>
<clipPath id="clip0_198_6530">
<rect width="40" height="40" fill="white" transform="translate(10 13)"/>
</clipPath>
</defs>
</svg>
