<svg width="83" height="32" viewBox="0 0 83 32" fill="none" xmlns="http://www.w3.org/2000/svg">
<path d="M21.1185 2.57265C21.2206 5.10684 23.2206 14.7775 23.2206 14.7775C23.9556 16.7361 24.5884 14.7775 24.5884 14.7775C27.0081 6.83276 22.0633 2.22869 22.0633 2.22869C20.801 1.42102 21.1185 2.57265 21.1185 2.57265ZM49.8292 1.19192C49.8292 1.19192 52.25 3.03391 49.8292 3.3791C49.8292 3.3791 40.7839 4.53011 34.0534 11.4405C34.0534 11.4405 23.9556 21.1093 20.1704 31.703C20.1704 31.703 18.9081 31.703 19.3305 29.6313C19.7507 27.559 22.2736 18.4621 33.526 7.29524C33.526 7.29524 44.3621 -3.52884 49.8292 1.19192Z" fill="white"/>
<path d="M3.81199 16.5203C4.21155 16.6126 4.57037 16.6578 5.09716 16.6578C7.16024 16.6578 8.55033 15.205 8.55033 13.3599C8.55033 11.7 7.47665 11.1013 6.08769 11.1013C5.47551 11.1013 5.01234 11.1477 4.71769 11.2387L3.81199 16.5203ZM2.65349 9.32527C3.51734 9.09372 4.80251 8.95626 6.06592 8.95626C7.39351 8.95626 8.78359 9.25501 9.70994 10.0633C10.5314 10.7549 11.0158 11.7678 11.0158 13.1534C11.0158 14.9973 10.215 16.4977 9.2038 17.3732C8.06706 18.3648 6.44372 18.8493 4.75899 18.8493C4.25284 18.8493 3.81199 18.779 3.43252 18.7338L2.40014 24.6147H0L2.65349 9.32527Z" fill="white"/>
<path d="M17.5223 15.3196C17.27 15.2494 16.9547 15.2048 16.5122 15.2048C14.2583 15.2048 12.4887 17.9962 12.4887 20.556C12.4887 21.7303 12.8888 22.6998 13.9636 22.6998C15.121 22.6998 16.5122 21.1328 16.9966 18.2723L17.5223 15.3196ZM16.5329 24.6145C16.5329 23.9443 16.6166 23.0462 16.702 22.0993H16.6595C15.6489 24.1533 14.2789 24.8675 12.9731 24.8675C11.1411 24.8675 9.93904 23.2992 9.93904 21.0399C9.93904 17.2117 12.3827 13.1294 17.1646 13.1294C18.2807 13.1294 19.4816 13.3597 20.2824 13.6365L19.2081 19.4942C18.9124 21.1542 18.7444 23.2766 18.7868 24.6145H16.5329Z" fill="white"/>
<path d="M34.2235 20.1638C34.2235 21.7071 34.9606 22.7939 36.2246 22.7939C38.0572 22.7939 39.2793 20.0251 39.2793 17.7885C39.2793 16.6344 38.7938 15.2048 37.3206 15.2048C35.3613 15.2048 34.2235 18.0652 34.2235 20.1638ZM41.8067 17.7665C41.8067 21.5934 39.3837 24.8675 35.8881 24.8675C33.296 24.8675 31.6967 22.9076 31.6967 20.2316C31.6967 16.4279 34.1186 13.13 37.6153 13.13C40.3742 13.13 41.8067 15.2976 41.8067 17.7665Z" fill="white"/>
<path d="M42.2678 24.6147L43.5954 16.8655C43.8476 15.5276 43.9949 14.3515 44.1216 13.3838H46.3136L46.0814 15.3901H46.1227C47.0697 13.8902 48.3767 13.1296 49.8092 13.1296C51.283 13.1296 52.4208 14.0992 52.4208 16.2204C52.4208 16.7268 52.3382 17.5107 52.2322 18.0648L51.1139 24.6147H48.6496L49.7439 18.2725C49.8092 17.8577 49.8717 17.3732 49.8717 16.9346C49.8717 15.9888 49.5558 15.3198 48.5871 15.3198C47.471 15.3198 46.0379 16.7953 45.5959 19.426L44.7114 24.6147H42.2678Z" fill="white"/>
<path d="M58.948 15.1358C57.4095 15.1358 56.3994 16.6344 56.1048 17.9962C58.6316 18.0188 60.2549 17.6498 60.2549 16.2898C60.2549 15.575 59.7281 15.1358 58.948 15.1358ZM61.2862 23.9682C60.2744 24.5443 58.9067 24.8675 57.6628 24.8675C54.8218 24.8675 53.4518 22.9546 53.4518 20.2096C53.4518 16.8195 55.7253 13.13 59.2644 13.13C61.2862 13.13 62.5713 14.3977 62.5713 16.2898C62.5713 19.1716 59.8129 20.0936 55.8531 20.0019C55.8101 20.3935 55.8944 21.1542 56.1265 21.5928C56.5272 22.3547 57.2621 22.7463 58.2326 22.7463C59.3922 22.7463 60.3174 22.4231 61.0568 22.0082L61.2862 23.9682Z" fill="white"/>
<path d="M68.4885 15.1358C66.9517 15.1358 65.94 16.6344 65.6453 17.9962C68.1721 18.0188 69.7955 17.6498 69.7955 16.2898C69.7955 15.575 69.2687 15.1358 68.4885 15.1358ZM70.8267 23.9682C69.8167 24.5443 68.4472 24.8675 67.2056 24.8675C64.3624 24.8675 62.9924 22.9546 62.9924 20.2096C62.9924 16.8195 65.2658 13.13 68.805 13.13C70.8267 13.13 72.1141 14.3977 72.1141 16.2898C72.1141 19.1716 69.3535 20.0936 65.3936 20.0019C65.3501 20.3935 65.4349 21.1542 65.6671 21.5928C66.0677 22.3547 66.8044 22.7463 67.7731 22.7463C68.9327 22.7463 69.858 22.4231 70.5974 22.0082L70.8267 23.9682Z" fill="white"/>
<path d="M72.2596 24.6147L73.4599 17.6958C73.7334 16.1049 73.8807 14.3753 73.9845 13.3838H76.1129C76.0498 14.1444 75.9873 14.9282 75.8813 15.7365H75.9438C76.6419 14.2366 77.7557 13.1296 79.1469 13.1296C79.3378 13.1296 79.5264 13.1534 79.6955 13.1534L79.21 15.7823C79.0839 15.7585 78.9154 15.7585 78.7463 15.7585C76.9968 15.7585 75.8813 17.6958 75.4823 20.0938L74.7021 24.6147H72.2596Z" fill="white"/>
<path d="M81.5588 14.4113H81.7385C81.9226 14.4113 82.0443 14.2989 82.0443 14.1291C82.0443 13.9379 81.9165 13.8542 81.7323 13.8542C81.6475 13.8542 81.5872 13.8609 81.5588 13.8682V14.4113ZM81.383 13.7338C81.4723 13.7161 81.6001 13.7032 81.7189 13.7032C81.9053 13.7032 82.0292 13.7448 82.1113 13.8254C82.1788 13.8908 82.2178 13.9928 82.2178 14.1101C82.2178 14.3032 82.1068 14.4339 81.9639 14.4859V14.4932C82.0677 14.5323 82.1285 14.6392 82.1631 14.7932C82.2067 14.9984 82.239 15.1432 82.2675 15.2013H82.0856C82.0638 15.1561 82.0331 15.0308 81.9985 14.8457C81.9572 14.6404 81.8819 14.5647 81.7234 14.5573H81.5588V15.2013H81.383V13.7338Z" fill="white"/>
<path d="M81.786 13.13C81.1164 13.13 80.5723 13.7257 80.5723 14.4588C80.5723 15.1919 81.1164 15.7882 81.786 15.7882C82.4557 15.7882 82.9998 15.1919 82.9998 14.4588C82.9998 13.7257 82.4557 13.13 81.786 13.13ZM81.786 13.3353C82.3519 13.3353 82.8112 13.8369 82.8112 14.4588C82.8112 15.0801 82.3519 15.5835 81.786 15.5835C81.2185 15.5835 80.7587 15.0801 80.7587 14.4588C80.7587 13.8369 81.2185 13.3353 81.786 13.3353Z" fill="white"/>
</svg>
