<svg width="54" height="51" viewBox="0 0 54 51" fill="none" xmlns="http://www.w3.org/2000/svg">
<g clip-path="url(#clip0_198_6546)">
<path d="M27 46C38.0457 46 47 37.0457 47 26C47 14.9543 38.0457 6 27 6C15.9543 6 7 14.9543 7 26C7 37.0457 15.9543 46 27 46Z" fill="#FFE14D"/>
<path d="M47 26C47 14.972 38.028 6 27 6V46C38.028 46 47 37.028 47 26Z" fill="#FFBB33"/>
<path d="M27 41.2344C18.6 41.2344 11.7656 34.4 11.7656 26C11.7656 17.6 18.6 10.7656 27 10.7656C35.4 10.7656 42.2344 17.6 42.2344 26C42.2344 34.4 35.4 41.2344 27 41.2344Z" fill="#FFBB33"/>
<path d="M42.2344 26C42.2344 17.6 35.4 10.7656 27 10.7656V41.2344C35.4 41.2344 42.2344 34.4 42.2344 26Z" fill="#E68A2E"/>
<path d="M28.1719 24.9117V20.2785C29.5197 20.6092 30.5156 21.4764 30.5156 22.4731C30.5156 23.1209 31.0398 23.645 31.6875 23.645C32.3352 23.645 32.8594 23.1209 32.8594 22.4731C32.8594 20.2089 30.8437 18.3158 28.1719 17.8805V16.6138C28.1719 15.966 27.6477 15.4419 27 15.4419C26.3523 15.4419 25.8281 15.966 25.8281 16.6138V17.8805C23.1563 18.3158 21.1406 20.2089 21.1406 22.4731C21.1406 24.7374 23.1563 26.6305 25.8281 27.0658V31.6991C24.4803 31.3684 23.4844 30.5012 23.4844 29.5044C23.4844 28.8567 22.9602 28.3325 22.3125 28.3325C21.6648 28.3325 21.1406 28.8567 21.1406 29.5044C21.1406 31.7686 23.1563 33.6617 25.8281 34.0971V35.3752C25.8281 36.0229 26.3523 36.5471 27 36.5471C27.6477 36.5471 28.1719 36.0229 28.1719 35.3752V34.0971C30.8437 33.6617 32.8594 31.7686 32.8594 29.5044C32.8594 27.2402 30.8437 25.347 28.1719 24.9117ZM23.4844 22.4731C23.4844 21.4764 24.4803 20.6092 25.8281 20.2785V24.6678C24.4803 24.3371 23.4844 23.4699 23.4844 22.4731ZM28.1719 31.6991V27.3097C29.5197 27.6404 30.5156 28.5076 30.5156 29.5044C30.5156 30.5012 29.5197 31.3683 28.1719 31.6991Z" fill="#FFE14D"/>
<path d="M28.1719 35.3752V34.0971C30.8437 33.6617 32.8594 31.7686 32.8594 29.5044C32.8594 27.2402 30.8437 25.3471 28.1719 24.9117V20.2785C29.5197 20.6092 30.5156 21.4764 30.5156 22.4731C30.5156 23.1209 31.0398 23.645 31.6875 23.645C32.3352 23.645 32.8594 23.1209 32.8594 22.4731C32.8594 20.2089 30.8437 18.3158 28.1719 17.8805V16.6138C28.1719 15.966 27.6477 15.4419 27 15.4419V36.5471C27.6477 36.5471 28.1719 36.0229 28.1719 35.3752ZM28.1719 27.3096C29.5197 27.6403 30.5156 28.5075 30.5156 29.5043C30.5156 30.5011 29.5197 31.3683 28.1719 31.699V27.3096Z" fill="#FFBB33"/>
<circle cx="9.08337" cy="43.9165" r="1.25" fill="#FFBB33"/>
</g>
<circle cx="2" cy="2" r="2" fill="#FFE14D"/>
<circle cx="51" cy="3" r="3" fill="#FFE14D"/>
<circle cx="50" cy="47" r="4" fill="#FFBB33"/>
<defs>
<clipPath id="clip0_198_6546">
<rect width="40" height="40" fill="white" transform="translate(7 6)"/>
</clipPath>
</defs>
</svg>
