<svg width="57" height="58" viewBox="0 0 57 58" fill="none" xmlns="http://www.w3.org/2000/svg">
<circle cx="55" cy="5" r="2" fill="#E21B1B"/>
<circle cx="4" cy="1" r="1" fill="#E21B1B"/>
<circle cx="54" cy="57" r="1" fill="#E21B1B"/>
<circle cx="4.5" cy="52.5" r="4.5" fill="#E21B1B"/>
<g clip-path="url(#clip0_198_6567)">
<path d="M28 50C39.0457 50 48 41.0457 48 30C48 18.9543 39.0457 10 28 10C16.9543 10 8 18.9543 8 30C8 41.0457 16.9543 50 28 50Z" fill="#E21B1B"/>
<path d="M47.8655 32.2895L36.743 21.167L19.738 38.7976L30.748 49.8076C39.7462 48.5701 46.8324 41.3507 47.8655 32.2895Z" fill="#C40606"/>
<path d="M35.6859 39.0265C35.2859 39.0265 34.8866 38.874 34.5809 38.569L19.4384 23.4259C18.8278 22.8153 18.8278 21.8265 19.4384 21.2165C20.0491 20.6065 21.0378 20.6059 21.6478 21.2165L36.7909 36.3596C37.4016 36.9703 37.4016 37.959 36.7909 38.569C36.4853 38.874 36.0859 39.0265 35.6859 39.0265Z" fill="white"/>
<path d="M20.5425 39.0263C20.1425 39.0263 19.7431 38.8738 19.4375 38.5688C18.8268 37.9581 18.8268 36.9694 19.4375 36.3594L34.5806 21.2163C35.1912 20.6056 36.18 20.6056 36.79 21.2163C37.4 21.8269 37.4006 22.8156 36.79 23.4256L21.6475 38.5688C21.3425 38.8738 20.9425 39.0263 20.5425 39.0263Z" fill="white"/>
</g>
<defs>
<clipPath id="clip0_198_6567">
<rect width="40" height="40" fill="white" transform="translate(8 10)"/>
</clipPath>
</defs>
</svg>
